<?xml version="1.0"?>
<svg xmlns:rdf="http://www.w3.org/1999/02/22-rdf-syntax-ns#" xmlns="http://www.w3.org/2000/svg" xmlns:cc="http://creativecommons.org/ns#" xmlns:dc="http://purl.org/dc/elements/1.1/" xmlns:svg="http://www.w3.org/2000/svg" id="svg2" viewBox="0 0 1601 1968.1" version="1.0">
  <defs id="defs4">
    <filter id="filter5128">
      <feGaussianBlur id="feGaussianBlur5130" stdDeviation="1.0017006"/>
    </filter>
    <filter id="filter7172" y="-.39951" width="1.7844" height="1.799" x="-.39218">
      <feGaussianBlur id="feGaussianBlur7174" stdDeviation="17.992351"/>
    </filter>
    <filter id="filter5281" y="-.019661" width="1.3754" height="1.0393" x="-.1877">
      <feGaussianBlur id="feGaussianBlur5283" stdDeviation="2.8482643"/>
    </filter>
    <filter id="filter5315" y="-.12044" width="1.0911" height="1.2409" x="-.045551">
      <feGaussianBlur id="feGaussianBlur5317" stdDeviation="1.8627296"/>
    </filter>
    <filter id="filter5409">
      <feGaussianBlur id="feGaussianBlur5411" stdDeviation="1.6754576"/>
    </filter>
    <filter id="filter5498">
      <feGaussianBlur id="feGaussianBlur5500" stdDeviation="4.137636"/>
    </filter>
    <filter id="filter5723" y="-.1293" width="1.314" height="1.2586" x="-.157">
      <feGaussianBlur id="feGaussianBlur5725" stdDeviation="3.7005977"/>
    </filter>
  </defs>
  <g id="layer1" transform="translate(139.72 843.03)">
    <path id="path2160" d="m547.91 0c-17.32 0-33.73 9.5633-48.38 26.625-10.12-16.074-21.23-24.969-32.87-24.969-47.28 0.0002-85.63 146.25-85.63 326.46 0 36.44 1.58 71.43 4.47 104.16-1.99 2.51-3.88 5.12-5.75 7.78-96.97 8.26-175.67 76.44-194.13 164.97-57.65 27.54-103.39 82.48-125.53 151.09-3.272-1.01-6.677-1.59-10.152-1.59-27.568 0-49.938 33.59-49.938 74.94s22.37 74.87 49.938 74.87c0.154 0 0.314 0.01 0.468 0 21.149 118.16 109.42 207.16 215.59 209.26-0.97 8.1-1.5 16.4-1.5 24.8 0 73.5 38.34 137 93.62 166.4-0.01 1.3-0.03 2.7-0.03 4 0 105.8 51.98 195 122.75 222 9 25.7 22.21 48.8 38.69 68.3-7.78 27-12.25 58.4-12.25 91.8 0 48.5 9.38 92.6 24.63 125.3-48.94 8.1-84.57 32.9-84.57 62 0 35.9 53.75 64.9 119.91 64.9 53.86 0 99.4-19.2 114.5-45.7 23.07 22.6 50.09 35.6 78.94 35.6 84.79 0 80.87-136.6 80.87-275 0-21.4 71.08-17.8 68-37.6 30.46-4.5 58.86-17.3 83.53-36.6 44.11 13.5 91.21 20.7 140.11 20.7 15.7 0 31.1-0.7 46.4-2.2 4.2 3.7 8.5 7.3 12.9 10.7-3 10.1-4.6 20.8-4.6 31.9 0 34.2 15.3 64.9 39.3 85.6-15.5 14.1-25.4 32.3-26.9 52.3-41.2 3.6-73 25.5-73 52 0 29 38 52.5 84.9 52.5 12.8 0 24.9-1.8 35.8-4.9-1.5 2.7-2.2 5.5-2.2 8.3 0 42.7 55.9 77.4 124.8 77.4 65 0 126.6-34.9 132.4-74.3 27.7-38.4 33.4-97.8 33.4-164.5 0-75.1 42-137 8-174.1 26.3-38.9 41.6-85.9 41.6-136.4 0-38.2-8.7-74.3-24.2-106.5 12.9-38.8 19.9-80 19.9-122.7 0-69.8-18.7-135.6-51.6-193.38 8.2-21.39 75-23.99 75-89.87 0-75.81-23.3-79.42-69.7-96.93-36.1-13.6-114.2-23.32-114.2 52.49 0 3.33 0.1 6.66 0.3 9.93-78-60.62-178.5-97.18-288.3-97.18-107.8 0-206.73 35.25-284.11 93.96-35.99-17.61-82.07-29.11-132.84-31.62 3.4-14.22 5.22-29.21 5.22-44.69 0-76.28-44.16-140.6-104.22-160-0.34-5.33-0.92-10.59-1.69-15.81 4.77-17.97 7.38-37.22 7.38-57.25 0-23.07-3.41-45.1-9.66-65.34 28.28-49.5 46.75-130.22 46.75-221.35 0-150.45-50.23-272.56-112.12-272.56z" style="color:#000000" fill="#500" transform="translate(-139.72 -843.03)"/>
    <path id="path2169" style="color:#000000" d="m-379.82 460.97a82.833 101.02 0 1 1 -165.66 0 82.833 101.02 0 1 1 165.66 0z" transform="matrix(.62195 0 0 .6 520.77 -444.49)" filter="url(#filter5128)" stroke="#943f2a" stroke-linecap="round" stroke-width="7.7741"/>
    <path id="path2171" opacity=".84483" d="m-1046.5 42.77a28.284 34.345 0 1 1 -56.6 0 28.284 34.345 0 1 1 56.6 0z" fill="#fff" transform="matrix(.84848 0 0 .66724 1133.4 -218.07)"/>
    <path id="path5132" opacity=".16379" style="color:#000000" d="m1.0102 627.14a55.053 54.043 0 1 1 -110.11 0 55.053 54.043 0 1 1 110.11 0z" transform="matrix(3.3094 0 0 3.5112 388.01 -2135.7)" filter="url(#filter7172)" fill="#fff"/>
    <path id="path7176" opacity=".16379" style="color:#000000" d="m1.0102 627.14a55.053 54.043 0 1 1 -110.11 0 55.053 54.043 0 1 1 110.11 0z" transform="matrix(3.3094 0 0 3.5112 773.72 -1735.7)" filter="url(#filter7172)" fill="#fff"/>
    <path id="path7178" opacity=".16379" style="color:#000000" d="m1.0102 627.14a55.053 54.043 0 1 1 -110.11 0 55.053 54.043 0 1 1 110.11 0z" transform="matrix(3.8544 0 0 4.0135 1321.7 -2349.3)" filter="url(#filter7172)" fill="#fff"/>
    <path id="path7184" opacity=".19828" style="color:#000000" d="m1.0102 627.14a55.053 54.043 0 1 1 -110.11 0 55.053 54.043 0 1 1 110.11 0z" transform="matrix(1.0259 0 0 3.009 501.74 -2479.3)" filter="url(#filter7172)" fill="#fff"/>
    <path id="path7186" opacity=".2356" style="color:#000000" d="m1.0102 627.14a55.053 54.043 0 1 1 -110.11 0 55.053 54.043 0 1 1 110.11 0z" transform="matrix(.50697 0 0 .94713 339.41 -1377.7)" filter="url(#filter7172)" fill="#fff"/>
    <path id="path7188" opacity=".16379" d="m1.0102 627.14a55.053 54.043 0 1 1 -110.11 0 55.053 54.043 0 1 1 110.11 0z" transform="matrix(1.519 0 0 .82028 449.81 480.73)" filter="url(#filter7172)" fill="#fff"/>
    <path id="path7190" opacity=".17241" style="color:#000000" d="m1.0102 627.14a55.053 54.043 0 1 1 -110.11 0 55.053 54.043 0 1 1 110.11 0z" transform="matrix(1.519 0 0 1.3436 1278.4 209.36)" filter="url(#filter7172)" fill="#fff"/>
    <path id="path8177" d="m151.52 997.36s-97.982 9.14-111.11 94.94c-13.136 85.9 7.067-14.1 7.067-14.1s29.295-76.8 104.04-80.84z" fill-rule="evenodd" transform="translate(-139.72 -843.03)" stroke="#000" stroke-width="1px"/>
    <path id="path9209" d="m111.77 154.37s-105.2 9.48-119.3 99.09c-14.097 89.6 7.594-14.76 7.594-14.76 0.000026 0 31.453-80.12 111.71-84.33z" stroke="#000" stroke-width="1.0585px" fill-rule="evenodd"/>
    <path id="path9211" d="m81.126 129.27s-88.694 57.37-59.463 143.24-0.151-16.6-0.151-16.6-9.456-85.55 59.614-126.64z" stroke="#000" stroke-width="1.0585px" fill-rule="evenodd"/>
    <path id="path9213" opacity=".35602" d="m228.29 880.19a8.0812 7.0711 0 1 1 -16.16 0 8.0812 7.0711 0 1 1 16.16 0z" style="color:#000000" transform="translate(-139.72 -843.03)"/>
    <path id="path9215" opacity=".35602" d="m283.85 904.94a6.0609 8.5863 0 1 1 -12.12 0 6.0609 8.5863 0 1 1 12.12 0z" style="color:#000000" transform="translate(-139.72 -843.03)"/>
    <path id="path9217" opacity=".35602" d="m265.67 867.05a5.5558 7.0711 0 1 1 -11.11 0 5.5558 7.0711 0 1 1 11.11 0z" style="color:#000000" transform="translate(-139.72 -843.03)"/>
    <path id="path9221" opacity=".26178" d="m488.57 1895.3a12.143 5.7143 0 1 1 -24.28 0 12.143 5.7143 0 1 1 24.28 0z" style="color:#000000" transform="translate(-139.72 -843.03)"/>
    <path id="path9225" opacity=".2199" d="m1291.4 1892.4a6.4286 20 0 1 1 -12.8 0 6.4286 20 0 1 1 12.8 0z" style="color:#000000" transform="matrix(.27856 .96042 -.96042 .27856 2594.8 -729.05)"/>
    <path id="path9227" opacity=".2199" d="m1291.4 1892.4a6.4286 20 0 1 1 -12.8 0 6.4286 20 0 1 1 12.8 0z" style="color:#000000" transform="matrix(.60113 .79915 -.79915 .60113 1906.6 -1095.1)"/>
    <path id="path9229" opacity=".2199" d="m1291.4 1892.4a6.4286 20 0 1 1 -12.8 0 6.4286 20 0 1 1 12.8 0z" style="color:#000000" transform="matrix(.84282 .53820 -.53820 .84282 1150.8 -1190)"/>
    <path id="path10200" opacity=".26178" d="m487.14 1856.7a12.857 4.2857 0 1 1 -25.71 0 12.857 4.2857 0 1 1 25.71 0z" style="color:#000000" transform="translate(-139.72 -843.03)"/>
    <path id="path5263" d="m700 1882.4s-42.86-140-34.29-257.1c8.58-117.2 2.86-85.8 2.86-85.8" transform="translate(-139.72 -843.03)" filter="url(#filter5281)" stroke="#000" stroke-width="1px" fill="none"/>
    <path id="path5285" d="m1288.6 1813.8s12.6-30.7 54.1-28.2c91.8 5.5 115.2 40.3 108.7 37.3" transform="matrix(.67009 .065750 -.087815 .50172 488.15 -22.998)" filter="url(#filter5315)" stroke="#000" stroke-width="1px" fill="none"/>
    <path id="path5319" d="m1862.9 1785.3l137.1 157.1" transform="translate(-139.72 -843.03)" stroke="#000" stroke-width="1px" fill="none"/>
    <path id="path5321" d="m1136.7 828.38s12.6-30.72 54.1-28.23c91.9 5.5 115.3 40.34 108.8 37.32" transform="matrix(-.20655 -1.4232 1.1255 -.26119 504.77 2799.7)" filter="url(#filter5315)" stroke="#000" stroke-width="1px" fill="none"/>
    <path id="path5323" d="m515.19 8.4375s-105.08 169.69-38.41 464.65l7.56-91.43-5.68 87.37c51.01-127.8 39.46-330.26 32.34-409.78l4.19-50.812z" fill-rule="evenodd" transform="matrix(1.3616 0 0 .99657 -304.04 -842.92)" filter="url(#filter5409)" stroke="#000" stroke-width="1px" fill="#782121"/>
    <path id="path5413" opacity=".10776" d="m-466.23 806.77c0 50.47-43.21 64.21-79.48 64.21-36.28 0-65.72-40.96-65.72-91.43s50.09-114.11 86.37-114.11c10.89 0 53.4-24.64 43.99-18.5-101.71 66.34 14.84 124.52 14.84 159.83z" fill="#f0f" transform="matrix(.58696 0 0 .66797 223.45 -538.83)"/>
    <path id="path5416" d="m-38.261 202.15s217.79 146.82 330.44-46.36" filter="url(#filter5498)" stroke="#000" stroke-width="1.8853px" fill="none"/>
    <path id="path5555" d="m309.75-837.45s-105.07 169.7-38.4 464.66l7.56-91.44-5.69 87.38c51.01-127.8 39.46-330.26 32.35-409.78l4.18-50.82z" fill-rule="evenodd" transform="matrix(1.0005 0 0 .93551 -.14546 -54.026)" filter="url(#filter5409)" stroke="#000" stroke-width="1px" fill="#782121"/>
    <path id="path5557" opacity=".24138" d="m-1046.5 42.77a28.284 34.345 0 1 1 -56.6 0 28.284 34.345 0 1 1 56.6 0z" transform="matrix(.54543 0 0 .37608 820.59 -147.05)" filter="url(#filter5723)" fill="#fff"/>
    <path id="path5727" opacity=".26178" d="m488.57 1895.3a12.143 5.7143 0 1 1 -24.28 0 12.143 5.7143 0 1 1 24.28 0z" transform="matrix(-.12660 -.99195 .99195 -.12660 -1240.1 1757.6)"/>
    <path id="path5729" opacity=".26178" d="m488.57 1895.3a12.143 5.7143 0 1 1 -24.28 0 12.143 5.7143 0 1 1 24.28 0z" transform="matrix(-.12660 -.99195 .99195 -.12660 -1213.7 1764.8)"/>
    <path id="path5731" opacity=".26178" d="m488.57 1895.3a12.143 5.7143 0 1 1 -24.28 0 12.143 5.7143 0 1 1 24.28 0z" transform="matrix(-.23415 -.97220 .97220 -.23415 -1097.8 1956.5)"/>
    <path id="path5733" opacity=".2199" d="m1291.4 1892.4a6.4286 20 0 1 1 -12.8 0 6.4286 20 0 1 1 12.8 0z" transform="matrix(.27856 .96042 -.96042 .27856 2499.1 -750.48)"/>
    <path id="path5739" opacity=".2199" d="m1291.4 1892.4a6.4286 20 0 1 1 -12.8 0 6.4286 20 0 1 1 12.8 0z" transform="matrix(.27856 .96042 -.96042 .27856 2468.4 -781.91)"/>
    <path id="path5741" d="m1288.6 1813.8s12.6-30.7 54.1-28.2c91.8 5.5 115.2 40.3 108.7 37.3" transform="matrix(.48451 -.46704 .29167 .36877 -41.597 977.8)" filter="url(#filter5315)" stroke="#000" stroke-width="1px" fill="none"/>
  </g>
  <metadata>
    <rdf:RDF>
      <cc:Work>
        <dc:format>image/svg+xml</dc:format>
        <dc:type rdf:resource="http://purl.org/dc/dcmitype/StillImage"/>
        <cc:license rdf:resource="http://creativecommons.org/licenses/publicdomain/"/>
        <dc:publisher>
          <cc:Agent rdf:about="http://openclipart.org/">
            <dc:title>Openclipart</dc:title>
          </cc:Agent>
        </dc:publisher>
        <dc:title>Chocolate Bunny</dc:title>
        <dc:date>2008-08-13T03:07:38</dc:date>
        <dc:description>And, yet, he tastes like chicken.</dc:description>
        <dc:source>http://openclipart.org/detail/18409/chocolate-bunny-by-feraliminal</dc:source>
        <dc:creator>
          <cc:Agent>
            <dc:title>feraliminal</dc:title>
          </cc:Agent>
        </dc:creator>
        <dc:subject>
          <rdf:Bag>
            <rdf:li>animal</rdf:li>
            <rdf:li>bunny</rdf:li>
            <rdf:li>clip art</rdf:li>
            <rdf:li>clipart</rdf:li>
            <rdf:li>easter</rdf:li>
            <rdf:li>image</rdf:li>
            <rdf:li>media</rdf:li>
            <rdf:li>public domain</rdf:li>
            <rdf:li>rabbit</rdf:li>
            <rdf:li>svg</rdf:li>
          </rdf:Bag>
        </dc:subject>
      </cc:Work>
      <cc:License rdf:about="http://creativecommons.org/licenses/publicdomain/">
        <cc:permits rdf:resource="http://creativecommons.org/ns#Reproduction"/>
        <cc:permits rdf:resource="http://creativecommons.org/ns#Distribution"/>
        <cc:permits rdf:resource="http://creativecommons.org/ns#DerivativeWorks"/>
      </cc:License>
    </rdf:RDF>
  </metadata>
</svg>
